<svg width="20" height="20" viewBox="0 0 20 20" fill="none" xmlns="http://www.w3.org/2000/svg">
<path d="M10 19C12.6655 19 15.0604 17.8412 16.7083 16C16.9249 15.758 17.1287 15.5041 17.3184 15.2396M10 19V6.25M10 19C6.98412 19 4.3147 17.5166 2.6816 15.2396M1.19266 8.13888C1.0664 8.73939 1 9.36194 1 10C1 11.9547 1.62314 13.7638 2.6816 15.2396M1.19266 8.13888C2.05001 4.06134 5.6675 1 10 1C14.3325 1 17.95 4.06134 18.8073 8.13888M1.19266 8.13888L10 6.25M18.8073 8.13888C18.9336 8.73939 19 9.36194 19 10C19 11.9547 18.3769 13.7638 17.3184 15.2396M18.8073 8.13888L10 6.25M10 6.25L17.3184 15.2396M10 6.25L2.6816 15.2396" stroke="black" stroke-linecap="round" stroke-linejoin="round"/>
</svg>
